<svg width="25" height="24" viewBox="0 0 25 24" fill="none" xmlns="http://www.w3.org/2000/svg">
<g clip-path="url(#clip0_2702_14671)">
<path d="M8.42817 7.73357C9.12437 5.29287 10.5301 4.07252 12.56 4.09253C14.5246 4.11253 15.9277 5.36356 16.5705 7.7389C16.6559 7.49483 16.7119 7.32545 16.7732 7.1574C17.252 5.86637 18.179 5.09681 19.542 4.98478C20.7957 4.88342 21.8093 5.43424 22.4415 6.52256C23.1257 7.69356 23.0484 8.87523 22.2401 9.96087C21.96 10.3356 21.9827 10.437 22.3988 10.6477C23.7966 11.3519 24.4821 12.5269 24.4968 14.0887C24.5154 16.0039 24.5141 16.0053 22.6656 16.6134C22.1827 16.7846 21.6821 16.9004 21.1732 16.9589C20.8677 16.9869 20.625 16.8869 20.577 16.5681C20.529 16.2493 20.7317 16.068 21.0304 16.0186C21.7556 15.91 22.4627 15.7036 23.1324 15.4051C23.3098 15.3237 23.5325 15.2717 23.5325 15.0117C23.5325 14.2808 23.6259 13.5366 23.2924 12.847C22.8803 11.9948 22.2321 11.408 21.2705 11.2933C20.2753 11.1886 19.2721 11.1859 18.2763 11.2853C18.0118 11.317 17.7544 11.3927 17.5148 11.5093C16.7346 11.8628 16.7252 11.9815 17.3134 12.6003C18.1173 13.417 18.5896 14.5029 18.6391 15.6478C18.6631 16.1813 18.5831 16.7228 18.6604 17.2483C18.7938 18.1192 18.3804 18.502 17.6255 18.8194C14.0138 20.3372 10.4581 20.2718 6.91841 18.5967C6.49562 18.3966 6.31423 18.1446 6.34758 17.6738C6.38492 17.1403 6.36225 16.6068 6.34758 16.0733C6.32357 14.6062 6.82638 13.3685 7.91603 12.3989C8.2788 12.0761 8.16143 11.9321 7.85468 11.716C6.84505 11.0038 3.58679 11.0198 2.58917 11.7521C1.68891 12.4176 1.16743 13.9834 1.47151 15.0557C1.54087 15.2957 1.73826 15.3438 1.90764 15.4211C2.5365 15.7034 3.2011 15.8982 3.88287 15.9999C4.19763 16.0466 4.46704 16.1827 4.42303 16.5454C4.37368 16.9455 4.06026 16.9962 3.71749 16.9455C2.69586 16.7948 1.74493 16.4307 0.821995 15.9826C0.737409 15.9512 0.663762 15.896 0.610012 15.8235C0.556263 15.751 0.524727 15.6645 0.519241 15.5745C0.531245 14.5369 0.367198 13.4859 0.821995 12.4869C1.19136 11.6433 1.86045 10.9666 2.69987 10.5877C2.96661 10.4637 3.09998 10.397 2.85724 10.0836C1.96365 8.95525 1.84629 7.72423 2.5905 6.48254C3.23602 5.40624 4.25364 4.86341 5.50734 4.99145C6.98909 5.14216 7.91869 6.02108 8.31881 7.45482C8.33615 7.51751 8.36949 7.57619 8.42817 7.73357ZM12.504 12.1282C11.9705 12.1282 11.437 12.1095 10.9035 12.1282C9.96236 12.1733 9.07244 12.5703 8.41 13.2404C7.74755 13.9105 7.36087 14.8049 7.32652 15.7465C7.31185 16.1907 7.35587 16.6388 7.30785 17.0802C7.25184 17.5937 7.48124 17.8285 7.9307 18.0138C10.8155 19.1902 13.715 19.2542 16.6385 18.1819C17.6935 17.7938 17.6895 17.7818 17.6882 16.6868C17.6882 16.376 17.6882 16.0653 17.6802 15.7532C17.6465 14.8112 17.2604 13.9161 16.5981 13.2453C15.9359 12.5744 15.046 12.1767 14.1045 12.1308C13.571 12.1082 13.0375 12.1282 12.504 12.1282ZM15.5542 8.08034C15.5494 7.27102 15.2234 6.49674 14.6477 5.92784C14.0721 5.35895 13.294 5.04203 12.4847 5.0468C11.6753 5.05158 10.9011 5.37766 10.3322 5.95331C9.76328 6.52896 9.44636 7.30703 9.45113 8.11635C9.4618 9.76082 10.8862 11.1746 12.5213 11.1612C14.1565 11.1479 15.5716 9.72481 15.5542 8.08034ZM5.2766 10.2516C5.84942 10.2439 6.39579 10.0093 6.79584 9.59921C7.19589 9.18916 7.41696 8.63717 7.41055 8.06433C7.39054 6.89333 6.37692 5.89838 5.21659 5.91972C4.05625 5.94106 3.0493 6.97469 3.0693 8.12435C3.0867 8.6969 3.32734 9.23995 3.73979 9.63745C4.15224 10.0349 4.7038 10.2554 5.2766 10.2516ZM19.7541 10.2516C20.3266 10.2479 20.875 10.0208 21.2826 9.61877C21.6901 9.2167 21.9246 8.6714 21.936 8.09901C21.9216 7.52668 21.6886 6.98161 21.2847 6.5758C20.8809 6.16999 20.337 5.93426 19.7648 5.91705C19.1913 5.92769 18.6444 6.1606 18.2393 6.56665C17.8343 6.97271 17.6027 7.5202 17.5935 8.09367C17.5949 8.66615 17.823 9.21475 18.2279 9.61943C18.6329 10.0241 19.1816 10.2519 19.7541 10.253V10.2516ZM9.96995 11.2039C9.12479 10.468 8.58493 9.44297 8.45618 8.32974C8.30947 8.76853 8.25346 9.03394 8.13609 9.26334C7.9427 9.64879 7.46923 10.0902 7.55726 10.3703C7.65462 10.6877 8.30014 10.7958 8.60022 11.0999C9.01901 11.528 9.40312 11.5893 9.96995 11.2039ZM14.974 11.2773C15.4529 11.3373 15.7423 11.712 16.101 11.3519C16.4425 11.0026 16.8507 10.7255 17.3014 10.537C17.5001 10.4557 17.6201 10.361 17.4227 10.1596C16.968 9.6968 16.7852 9.09263 16.5345 8.33107C16.3878 9.58343 15.8476 10.4557 14.9727 11.2773H14.974Z" fill="#FA8B02" stroke="#FA8B02" stroke-width="0.3"/>
</g>
<defs>
<clipPath id="clip0_2702_14671">
<rect width="24" height="24" fill="white" transform="translate(0.5)"/>
</clipPath>
</defs>
</svg>
