<svg width="61" height="62" viewBox="0 0 61 62" fill="none" xmlns="http://www.w3.org/2000/svg">
<g filter="url(#filter0_d_108_74)">
<path fill-rule="evenodd" clip-rule="evenodd" d="M30.5 49.6938C41.8218 49.6938 51 40.5157 51 29.1938C51 17.872 41.8218 8.69385 30.5 8.69385C19.1782 8.69385 10 17.872 10 29.1938C10 40.5157 19.1782 49.6938 30.5 49.6938Z" fill="white"/>
</g>
<path fill-rule="evenodd" clip-rule="evenodd" d="M33.1084 26.9383C32.7883 26.8371 32.4202 26.7696 32.0842 26.7696C31.6681 26.7696 30.7719 27.0564 30.7719 27.6133V28.9465H32.9003V31.191H30.7719V37.3843H28.6275V31.191H27.5713V28.9465H28.6275V27.8158C28.6275 26.1114 29.3636 24.6938 31.14 24.6938C31.7481 24.6938 32.8363 24.7276 33.4284 24.947L33.1084 26.9383Z" fill="#080809"/>
<defs>
<filter id="filter0_d_108_74" x="0" y="0.693848" width="61" height="61" filterUnits="userSpaceOnUse" color-interpolation-filters="sRGB">
<feFlood flood-opacity="0" result="BackgroundImageFix"/>
<feColorMatrix in="SourceAlpha" type="matrix" values="0 0 0 0 0 0 0 0 0 0 0 0 0 0 0 0 0 0 127 0" result="hardAlpha"/>
<feOffset dy="2"/>
<feGaussianBlur stdDeviation="5"/>
<feColorMatrix type="matrix" values="0 0 0 0 0 0 0 0 0 0 0 0 0 0 0 0 0 0 0.1 0"/>
<feBlend mode="normal" in2="BackgroundImageFix" result="effect1_dropShadow_108_74"/>
<feBlend mode="normal" in="SourceGraphic" in2="effect1_dropShadow_108_74" result="shape"/>
</filter>
</defs>
</svg>
