<svg width="13" height="12" viewBox="0 0 13 12" fill="none" xmlns="http://www.w3.org/2000/svg">
<path d="M12.1487 4.58597C12.0735 4.35354 11.8674 4.18846 11.6235 4.16648L8.3105 3.86566L7.00046 0.799381C6.90387 0.574662 6.68388 0.429199 6.43945 0.429199C6.19503 0.429199 5.97504 0.574662 5.87845 0.799906L4.56841 3.86566L1.2549 4.16648C1.01144 4.18899 0.80581 4.35354 0.730232 4.58597C0.654655 4.81839 0.724452 5.07332 0.908623 5.23403L3.41285 7.43024L2.67441 10.6831C2.62038 10.9222 2.71321 11.1695 2.91165 11.3129C3.01832 11.39 3.14312 11.4292 3.26896 11.4292C3.37747 11.4292 3.4851 11.3999 3.58169 11.3421L6.43945 9.63417L9.29617 11.3421C9.50521 11.4679 9.76871 11.4564 9.96673 11.3129C10.1653 11.169 10.258 10.9217 10.204 10.6831L9.46554 7.43024L11.9698 5.23446C12.1539 5.07332 12.2242 4.81883 12.1487 4.58597Z" fill="#FFC700"/>
</svg>
