<svg width="25" height="24" viewBox="0 0 25 24" fill="none" xmlns="http://www.w3.org/2000/svg">
<path d="M3.35693 7.42861H21.6426M5.64265 2.85718H19.3569C19.9631 2.85718 20.5445 3.09799 20.9732 3.52665C21.4018 3.9553 21.6426 4.53668 21.6426 5.14289V18.8572C21.6426 19.4634 21.4018 20.0448 20.9732 20.4734C20.5445 20.9021 19.9631 21.1429 19.3569 21.1429H5.64265C5.03644 21.1429 4.45506 20.9021 4.0264 20.4734C3.59775 20.0448 3.35693 19.4634 3.35693 18.8572V5.14289C3.35693 4.53668 3.59775 3.9553 4.0264 3.52665C4.45506 3.09799 5.03644 2.85718 5.64265 2.85718V2.85718Z" stroke="#FA8B02" stroke-linecap="round" stroke-linejoin="round"/>
<path d="M12.4998 13.1429C13.131 13.1429 13.6426 12.6312 13.6426 12C13.6426 11.3689 13.131 10.8572 12.4998 10.8572C11.8686 10.8572 11.3569 11.3689 11.3569 12C11.3569 12.6312 11.8686 13.1429 12.4998 13.1429Z" fill="#FA8B02"/>
<path d="M7.9285 13.1429C8.55968 13.1429 9.07136 12.6312 9.07136 12C9.07136 11.3689 8.55968 10.8572 7.9285 10.8572C7.29732 10.8572 6.78564 11.3689 6.78564 12C6.78564 12.6312 7.29732 13.1429 7.9285 13.1429Z" fill="#FA8B02"/>
<path d="M17.0716 13.1429C17.7028 13.1429 18.2144 12.6312 18.2144 12C18.2144 11.3689 17.7028 10.8572 17.0716 10.8572C16.4404 10.8572 15.9287 11.3689 15.9287 12C15.9287 12.6312 16.4404 13.1429 17.0716 13.1429Z" fill="#FA8B02"/>
<path d="M12.4998 17.7143C13.131 17.7143 13.6426 17.2026 13.6426 16.5714C13.6426 15.9403 13.131 15.4286 12.4998 15.4286C11.8686 15.4286 11.3569 15.9403 11.3569 16.5714C11.3569 17.2026 11.8686 17.7143 12.4998 17.7143Z" fill="#FA8B02"/>
<path d="M7.9285 17.7143C8.55968 17.7143 9.07136 17.2026 9.07136 16.5714C9.07136 15.9403 8.55968 15.4286 7.9285 15.4286C7.29732 15.4286 6.78564 15.9403 6.78564 16.5714C6.78564 17.2026 7.29732 17.7143 7.9285 17.7143Z" fill="#FA8B02"/>
<path d="M17.0716 17.7143C17.7028 17.7143 18.2144 17.2026 18.2144 16.5714C18.2144 15.9403 17.7028 15.4286 17.0716 15.4286C16.4404 15.4286 15.9287 15.9403 15.9287 16.5714C15.9287 17.2026 16.4404 17.7143 17.0716 17.7143Z" fill="#FA8B02"/>
</svg>
