<svg width="24" height="24" viewBox="0 0 24 24" fill="none" xmlns="http://www.w3.org/2000/svg">
<path d="M2.85718 7.42858H21.1429M5.14289 2.85715H18.8572C19.4634 2.85715 20.0448 3.09796 20.4734 3.52662C20.9021 3.95527 21.1429 4.53665 21.1429 5.14286V18.8571C21.1429 19.4634 20.9021 20.0447 20.4734 20.4734C20.0448 20.902 19.4634 21.1429 18.8572 21.1429H5.14289C4.53668 21.1429 3.9553 20.902 3.52665 20.4734C3.09799 20.0447 2.85718 19.4634 2.85718 18.8571V5.14286C2.85718 4.53665 3.09799 3.95527 3.52665 3.52662C3.9553 3.09796 4.53668 2.85715 5.14289 2.85715V2.85715Z" stroke="#333333" stroke-linecap="round" stroke-linejoin="round"/>
<path d="M12 13.1429C12.6312 13.1429 13.1429 12.6312 13.1429 12C13.1429 11.3688 12.6312 10.8571 12 10.8571C11.3689 10.8571 10.8572 11.3688 10.8572 12C10.8572 12.6312 11.3689 13.1429 12 13.1429Z" fill="#333333"/>
<path d="M7.4285 13.1429C8.05968 13.1429 8.57136 12.6312 8.57136 12C8.57136 11.3688 8.05968 10.8571 7.4285 10.8571C6.79732 10.8571 6.28564 11.3688 6.28564 12C6.28564 12.6312 6.79732 13.1429 7.4285 13.1429Z" fill="#333333"/>
<path d="M16.5713 13.1429C17.2025 13.1429 17.7142 12.6312 17.7142 12C17.7142 11.3688 17.2025 10.8571 16.5713 10.8571C15.9401 10.8571 15.4285 11.3688 15.4285 12C15.4285 12.6312 15.9401 13.1429 16.5713 13.1429Z" fill="#333333"/>
<path d="M12 17.7143C12.6312 17.7143 13.1429 17.2026 13.1429 16.5714C13.1429 15.9403 12.6312 15.4286 12 15.4286C11.3689 15.4286 10.8572 15.9403 10.8572 16.5714C10.8572 17.2026 11.3689 17.7143 12 17.7143Z" fill="#333333"/>
<path d="M7.4285 17.7143C8.05968 17.7143 8.57136 17.2026 8.57136 16.5714C8.57136 15.9403 8.05968 15.4286 7.4285 15.4286C6.79732 15.4286 6.28564 15.9403 6.28564 16.5714C6.28564 17.2026 6.79732 17.7143 7.4285 17.7143Z" fill="#333333"/>
<path d="M16.5713 17.7143C17.2025 17.7143 17.7142 17.2026 17.7142 16.5714C17.7142 15.9403 17.2025 15.4286 16.5713 15.4286C15.9401 15.4286 15.4285 15.9403 15.4285 16.5714C15.4285 17.2026 15.9401 17.7143 16.5713 17.7143Z" fill="#333333"/>
</svg>
